<svg xmlns="http://www.w3.org/2000/svg" width="31.65" height="31.65" viewBox="0 0 31.65 31.65"><g transform="translate(-1535 -6732)"><rect width="31.65" height="31.65" transform="translate(1535 6732)" opacity="0"/><path d="M28.4,54.488c.02.281.02.562.02.843,0,8.575-6.527,18.455-18.455,18.455A18.33,18.33,0,0,1,0,70.875a13.416,13.416,0,0,0,1.566.08,12.99,12.99,0,0,0,8.053-2.771,6.5,6.5,0,0,1-6.065-4.5,8.18,8.18,0,0,0,1.225.1,6.86,6.86,0,0,0,1.707-.221,6.487,6.487,0,0,1-5.2-6.366v-.08a6.532,6.532,0,0,0,2.932.823,6.5,6.5,0,0,1-2.008-8.675,18.437,18.437,0,0,0,13.374,6.788,7.322,7.322,0,0,1-.161-1.486A6.493,6.493,0,0,1,26.648,50.13a12.77,12.77,0,0,0,4.117-1.566,6.469,6.469,0,0,1-2.852,3.575,13,13,0,0,0,3.735-1A13.943,13.943,0,0,1,28.4,54.488Z" transform="translate(1535 6686.918)" fill="#feffff"/></g></svg>