<?xml version="1.0" encoding="UTF-8"?>
<svg width="31px" height="31px" viewBox="0 0 31 31" version="1.1" xmlns="http://www.w3.org/2000/svg" xmlns:xlink="http://www.w3.org/1999/xlink">
    <title>social-linkedin</title>
    <defs>
        <filter id="filter-1">
            <feColorMatrix in="SourceGraphic" type="matrix" values="0 0 0 0 1.000000 0 0 0 0 1.000000 0 0 0 0 1.000000 0 0 0 1.000000 0"></feColorMatrix>
        </filter>
    </defs>
    <g id="Page-1" stroke="none" stroke-width="1" fill="none" fill-rule="evenodd">
        <g filter="url(#filter-1)" id="social-linkedin">
            <g>
                <path d="M6.93901786,31 L0.512053571,31 L0.512053571,10.3028862 L6.93901786,10.3028862 L6.93901786,31 Z M3.72207589,7.47960888 C1.66694196,7.47960888 0,5.77733873 0,3.72215893 C0,1.66646731 1.66643016,0 3.72207589,0 C5.77772162,0 7.44415179,1.66646731 7.44415179,3.72215893 C7.44415179,5.77733873 5.77651786,7.47960888 3.72207589,7.47960888 Z M30.9930804,31 L24.5799554,31 L24.5799554,20.9247751 C24.5799554,18.5236054 24.5315179,15.4442956 21.2384598,15.4442956 C17.8969643,15.4442956 17.3849107,18.0530592 17.3849107,20.7517802 L17.3849107,31 L10.9648661,31 L10.9648661,10.3028862 L17.1288839,10.3028862 L17.1288839,13.1261635 L17.2188393,13.1261635 C18.076875,11.5000111 20.1728348,9.78390139 23.2998214,9.78390139 C29.8042857,9.78390139 31,14.0672559 31,19.630773 L31,31 L30.9930804,31 Z" id="Shape" fill="#000000" fill-rule="nonzero"></path>
            </g>
        </g>
    </g>
</svg>