<svg xmlns="http://www.w3.org/2000/svg" width="4173.507" height="351" viewBox="0 0 4173.507 351"><g transform="translate(12440.573 12491.196)"><path d="M3.5-30.737C3.5-11.561,19.731-6.909,46.977-6.909c24.587,0,41.39-3.607,41.39-21.36,0-16.8-16.233-18.227-42.434-19.651-19.366-1.139-23.353-2.088-23.353-7.215,0-4.936,3.987-6.55,20.79-6.55,17.752,0,25.062,1.8,25.062,9.113H85.519c0-16.423-15.189-22.689-40.251-22.689C20.4-75.26,5.492-70.608,5.492-55.989c0,14.9,11.487,19.461,40.441,20.79,21.549,1.044,25.347,1.994,25.347,7.5,0,5.221-5.411,7.215-23.353,7.215-21.644,0-27.34-3.228-27.34-10.253Zm108.127,8.544V-74.311H94.537V-7.859h68.351V-22.193ZM239.783-60.735V-74.311H169.533V-7.859h70.249V-21.434H186.621v-13.48h53.162V-47.255H186.621v-13.48Zm76.42,0V-74.311H245.953V-7.859H316.2V-21.434H263.041v-13.48H316.2V-47.255H263.041v-13.48Zm58.383-13.575H322.373V-7.859h17.088V-25.611h35.125c15.094,0,25.442-9.493,25.442-24.3S389.68-74.311,374.586-74.311Zm-4.747,34.365H339.461V-59.976h30.378c5.126,0,13.1,0,13.1,10.063C382.94-39.945,374.965-39.945,369.839-39.945ZM400.5-20.579V-7.859h16.233V-20.579Z" transform="translate(-10834.713 -12415.001)" fill="#fff"/><path d="M3.5-30.737C3.5-11.561,19.731-6.909,46.977-6.909c24.587,0,41.39-3.607,41.39-21.36,0-16.8-16.233-18.227-42.434-19.651-19.366-1.139-23.353-2.088-23.353-7.215,0-4.936,3.987-6.55,20.79-6.55,17.752,0,25.062,1.8,25.062,9.113H85.519c0-16.423-15.189-22.689-40.251-22.689C20.4-75.26,5.492-70.608,5.492-55.989c0,14.9,11.487,19.461,40.441,20.79,21.549,1.044,25.347,1.994,25.347,7.5,0,5.221-5.411,7.215-23.353,7.215-21.644,0-27.34-3.228-27.34-10.253Zm108.127,8.544V-74.311H94.537V-7.859h68.351V-22.193ZM239.783-60.735V-74.311H169.533V-7.859h70.249V-21.434H186.621v-13.48h53.162V-47.255H186.621v-13.48Zm76.42,0V-74.311H245.953V-7.859H316.2V-21.434H263.041v-13.48H316.2V-47.255H263.041v-13.48Zm58.383-13.575H322.373V-7.859h17.088V-25.611h35.125c15.094,0,25.442-9.493,25.442-24.3S389.68-74.311,374.586-74.311Zm-4.747,34.365H339.461V-59.976h30.378c5.126,0,13.1,0,13.1,10.063C382.94-39.945,374.965-39.945,369.839-39.945ZM400.5-20.579V-7.859h16.233V-20.579Z" transform="translate(-9271.923 -12415.001)" fill="none" stroke="#fff" stroke-width="1" opacity="0.2"/><path d="M3.5-30.737C3.5-11.561,19.731-6.909,46.977-6.909c24.587,0,41.39-3.607,41.39-21.36,0-16.8-16.233-18.227-42.434-19.651-19.366-1.139-23.353-2.088-23.353-7.215,0-4.936,3.987-6.55,20.79-6.55,17.752,0,25.062,1.8,25.062,9.113H85.519c0-16.423-15.189-22.689-40.251-22.689C20.4-75.26,5.492-70.608,5.492-55.989c0,14.9,11.487,19.461,40.441,20.79,21.549,1.044,25.347,1.994,25.347,7.5,0,5.221-5.411,7.215-23.353,7.215-21.644,0-27.34-3.228-27.34-10.253Zm108.127,8.544V-74.311H94.537V-7.859h68.351V-22.193ZM239.783-60.735V-74.311H169.533V-7.859h70.249V-21.434H186.621v-13.48h53.162V-47.255H186.621v-13.48Zm76.42,0V-74.311H245.953V-7.859H316.2V-21.434H263.041v-13.48H316.2V-47.255H263.041v-13.48Zm58.383-13.575H322.373V-7.859h17.088V-25.611h35.125c15.094,0,25.442-9.493,25.442-24.3S389.68-74.311,374.586-74.311Zm-4.747,34.365H339.461V-59.976h30.378c5.126,0,13.1,0,13.1,10.063C382.94-39.945,374.965-39.945,369.839-39.945ZM400.5-20.579V-7.859h16.233V-20.579Z" transform="translate(-11087.398 -12274.396)" fill="none" stroke="#fff" stroke-width="1" opacity="0.2"/><path d="M3.5-30.737C3.5-11.561,19.731-6.909,46.977-6.909c24.587,0,41.39-3.607,41.39-21.36,0-16.8-16.233-18.227-42.434-19.651-19.366-1.139-23.353-2.088-23.353-7.215,0-4.936,3.987-6.55,20.79-6.55,17.752,0,25.062,1.8,25.062,9.113H85.519c0-16.423-15.189-22.689-40.251-22.689C20.4-75.26,5.492-70.608,5.492-55.989c0,14.9,11.487,19.461,40.441,20.79,21.549,1.044,25.347,1.994,25.347,7.5,0,5.221-5.411,7.215-23.353,7.215-21.644,0-27.34-3.228-27.34-10.253Zm108.127,8.544V-74.311H94.537V-7.859h68.351V-22.193ZM239.783-60.735V-74.311H169.533V-7.859h70.249V-21.434H186.621v-13.48h53.162V-47.255H186.621v-13.48Zm76.42,0V-74.311H245.953V-7.859H316.2V-21.434H263.041v-13.48H316.2V-47.255H263.041v-13.48Zm58.383-13.575H322.373V-7.859h17.088V-25.611h35.125c15.094,0,25.442-9.493,25.442-24.3S389.68-74.311,374.586-74.311Zm-4.747,34.365H339.461V-59.976h30.378c5.126,0,13.1,0,13.1,10.063C382.94-39.945,374.965-39.945,369.839-39.945ZM400.5-20.579V-7.859h16.233V-20.579Z" transform="translate(-9524.608 -12274.396)" fill="none" stroke="#fff" stroke-width="1" opacity="0.2"/><path d="M3.5-30.737C3.5-11.561,19.731-6.909,46.977-6.909c24.587,0,41.39-3.607,41.39-21.36,0-16.8-16.233-18.227-42.434-19.651-19.366-1.139-23.353-2.088-23.353-7.215,0-4.936,3.987-6.55,20.79-6.55,17.752,0,25.062,1.8,25.062,9.113H85.519c0-16.423-15.189-22.689-40.251-22.689C20.4-75.26,5.492-70.608,5.492-55.989c0,14.9,11.487,19.461,40.441,20.79,21.549,1.044,25.347,1.994,25.347,7.5,0,5.221-5.411,7.215-23.353,7.215-21.644,0-27.34-3.228-27.34-10.253Zm108.127,8.544V-74.311H94.537V-7.859h68.351V-22.193ZM239.783-60.735V-74.311H169.533V-7.859h70.249V-21.434H186.621v-13.48h53.162V-47.255H186.621v-13.48Zm76.42,0V-74.311H245.953V-7.859H316.2V-21.434H263.041v-13.48H316.2V-47.255H263.041v-13.48Zm58.383-13.575H322.373V-7.859h17.088V-25.611h35.125c15.094,0,25.442-9.493,25.442-24.3S389.68-74.311,374.586-74.311Zm-4.747,34.365H339.461V-59.976h30.378c5.126,0,13.1,0,13.1,10.063C382.94-39.945,374.965-39.945,369.839-39.945ZM400.5-20.579V-7.859h16.233V-20.579Z" transform="translate(-11345.078 -12133.787)" fill="none" stroke="#fff" stroke-width="1" opacity="0.2"/><path d="M3.5-30.737C3.5-11.561,19.731-6.909,46.977-6.909c24.587,0,41.39-3.607,41.39-21.36,0-16.8-16.233-18.227-42.434-19.651-19.366-1.139-23.353-2.088-23.353-7.215,0-4.936,3.987-6.55,20.79-6.55,17.752,0,25.062,1.8,25.062,9.113H85.519c0-16.423-15.189-22.689-40.251-22.689C20.4-75.26,5.492-70.608,5.492-55.989c0,14.9,11.487,19.461,40.441,20.79,21.549,1.044,25.347,1.994,25.347,7.5,0,5.221-5.411,7.215-23.353,7.215-21.644,0-27.34-3.228-27.34-10.253Zm108.127,8.544V-74.311H94.537V-7.859h68.351V-22.193ZM239.783-60.735V-74.311H169.533V-7.859h70.249V-21.434H186.621v-13.48h53.162V-47.255H186.621v-13.48Zm76.42,0V-74.311H245.953V-7.859H316.2V-21.434H263.041v-13.48H316.2V-47.255H263.041v-13.48Zm58.383-13.575H322.373V-7.859h17.088V-25.611h35.125c15.094,0,25.442-9.493,25.442-24.3S389.68-74.311,374.586-74.311Zm-4.747,34.365H339.461V-59.976h30.378c5.126,0,13.1,0,13.1,10.063C382.94-39.945,374.965-39.945,369.839-39.945ZM400.5-20.579V-7.859h16.233V-20.579Z" transform="translate(-12397.768 -12415.437)" fill="none" stroke="#fff" stroke-width="1" opacity="0.2"/><path d="M3.5-30.737C3.5-11.561,19.731-6.909,46.977-6.909c24.587,0,41.39-3.607,41.39-21.36,0-16.8-16.233-18.227-42.434-19.651-19.366-1.139-23.353-2.088-23.353-7.215,0-4.936,3.987-6.55,20.79-6.55,17.752,0,25.062,1.8,25.062,9.113H85.519c0-16.423-15.189-22.689-40.251-22.689C20.4-75.26,5.492-70.608,5.492-55.989c0,14.9,11.487,19.461,40.441,20.79,21.549,1.044,25.347,1.994,25.347,7.5,0,5.221-5.411,7.215-23.353,7.215-21.644,0-27.34-3.228-27.34-10.253Zm108.127,8.544V-74.311H94.537V-7.859h68.351V-22.193ZM239.783-60.735V-74.311H169.533V-7.859h70.249V-21.434H186.621v-13.48h53.162V-47.255H186.621v-13.48Zm76.42,0V-74.311H245.953V-7.859H316.2V-21.434H263.041v-13.48H316.2V-47.255H263.041v-13.48Zm58.383-13.575H322.373V-7.859h17.088V-25.611h35.125c15.094,0,25.442-9.493,25.442-24.3S389.68-74.311,374.586-74.311Zm-4.747,34.365H339.461V-59.976h30.378c5.126,0,13.1,0,13.1,10.063C382.94-39.945,374.965-39.945,369.839-39.945ZM400.5-20.579V-7.859h16.233V-20.579Z" transform="translate(-9782.288 -12133.787)" fill="none" stroke="#fff" stroke-width="1" opacity="0.2"/><path d="M-283.073-41.18c0,22.119,12.531,34.27,41.77,34.27,26.486,0,39.776-10.158,41.485-29.429h-17.372c-1.614,10.822-9.968,15.094-24.113,15.094-17.277,0-24.682-6.265-24.682-19.936,0-13.575,7.31-19.746,24.682-19.746,14.24,0,22.5,4.177,24.113,14.9h17.372c-1.709-19.176-15-29.239-41.485-29.239C-270.542-75.26-283.073-63.2-283.073-41.18Zm167.08-8.734c0-14.809-10.348-24.4-25.442-24.4h-52.212V-7.859h17.088V-25.611h27.53L-138.3-7.859h20.126L-130.423-27.6C-121.5-31.117-115.993-39.091-115.993-49.913ZM-176.56-59.976h30.378c5.126,0,13.1,0,13.1,10.063,0,9.968-7.974,9.968-13.1,9.968H-176.56Zm136.417-.759V-74.311h-70.249V-7.859h70.249V-21.434H-93.3v-13.48h53.162V-47.255H-93.3v-13.48ZM37.891-7.859H56.782L22.417-74.311H-.652L-34.922-7.859h18.8L-9.005-22H30.771ZM-2.645-34.724,10.93-61.685,24.41-34.724ZM123.709-74.311H42.068v14.335H74.344V-7.859H91.432V-59.976h32.277Zm75.85,13.575V-74.311H129.31V-7.859h70.249V-21.434H146.4v-13.48h53.162V-47.255H146.4v-13.48Zm7.215,40.156V-7.859h16.233V-20.579Z" transform="translate(-10336.533 -12274.396)" fill="#fff"/><path d="M-283.073-41.18c0,22.119,12.531,34.27,41.77,34.27,26.486,0,39.776-10.158,41.485-29.429h-17.372c-1.614,10.822-9.968,15.094-24.113,15.094-17.277,0-24.682-6.265-24.682-19.936,0-13.575,7.31-19.746,24.682-19.746,14.24,0,22.5,4.177,24.113,14.9h17.372c-1.709-19.176-15-29.239-41.485-29.239C-270.542-75.26-283.073-63.2-283.073-41.18Zm167.08-8.734c0-14.809-10.348-24.4-25.442-24.4h-52.212V-7.859h17.088V-25.611h27.53L-138.3-7.859h20.126L-130.423-27.6C-121.5-31.117-115.993-39.091-115.993-49.913ZM-176.56-59.976h30.378c5.126,0,13.1,0,13.1,10.063,0,9.968-7.974,9.968-13.1,9.968H-176.56Zm136.417-.759V-74.311h-70.249V-7.859h70.249V-21.434H-93.3v-13.48h53.162V-47.255H-93.3v-13.48ZM37.891-7.859H56.782L22.417-74.311H-.652L-34.922-7.859h18.8L-9.005-22H30.771ZM-2.645-34.724,10.93-61.685,24.41-34.724ZM123.709-74.311H42.068v14.335H74.344V-7.859H91.432V-59.976h32.277Zm75.85,13.575V-74.311H129.31V-7.859h70.249V-21.434H146.4v-13.48h53.162V-47.255H146.4v-13.48Zm7.215,40.156V-7.859h16.233V-20.579Z" transform="translate(-8773.741 -12274.396)" fill="none" stroke="#fff" stroke-width="1" opacity="0.2"/><path d="M-283.073-41.18c0,22.119,12.531,34.27,41.77,34.27,26.486,0,39.776-10.158,41.485-29.429h-17.372c-1.614,10.822-9.968,15.094-24.113,15.094-17.277,0-24.682-6.265-24.682-19.936,0-13.575,7.31-19.746,24.682-19.746,14.24,0,22.5,4.177,24.113,14.9h17.372c-1.709-19.176-15-29.239-41.485-29.239C-270.542-75.26-283.073-63.2-283.073-41.18Zm167.08-8.734c0-14.809-10.348-24.4-25.442-24.4h-52.212V-7.859h17.088V-25.611h27.53L-138.3-7.859h20.126L-130.423-27.6C-121.5-31.117-115.993-39.091-115.993-49.913ZM-176.56-59.976h30.378c5.126,0,13.1,0,13.1,10.063,0,9.968-7.974,9.968-13.1,9.968H-176.56Zm136.417-.759V-74.311h-70.249V-7.859h70.249V-21.434H-93.3v-13.48h53.162V-47.255H-93.3v-13.48ZM37.891-7.859H56.782L22.417-74.311H-.652L-34.922-7.859h18.8L-9.005-22H30.771ZM-2.645-34.724,10.93-61.685,24.41-34.724ZM123.709-74.311H42.068v14.335H74.344V-7.859H91.432V-59.976h32.277Zm75.85,13.575V-74.311H129.31V-7.859h70.249V-21.434H146.4v-13.48h53.162V-47.255H146.4v-13.48Zm7.215,40.156V-7.859h16.233V-20.579Z" transform="translate(-11899.32 -12274.396)" fill="none" stroke="#fff" stroke-width="1" opacity="0.2"/><path d="M-283.073-41.18c0,22.119,12.531,34.27,41.77,34.27,26.486,0,39.776-10.158,41.485-29.429h-17.372c-1.614,10.822-9.968,15.094-24.113,15.094-17.277,0-24.682-6.265-24.682-19.936,0-13.575,7.31-19.746,24.682-19.746,14.24,0,22.5,4.177,24.113,14.9h17.372c-1.709-19.176-15-29.239-41.485-29.239C-270.542-75.26-283.073-63.2-283.073-41.18Zm167.08-8.734c0-14.809-10.348-24.4-25.442-24.4h-52.212V-7.859h17.088V-25.611h27.53L-138.3-7.859h20.126L-130.423-27.6C-121.5-31.117-115.993-39.091-115.993-49.913ZM-176.56-59.976h30.378c5.126,0,13.1,0,13.1,10.063,0,9.968-7.974,9.968-13.1,9.968H-176.56Zm136.417-.759V-74.311h-70.249V-7.859h70.249V-21.434H-93.3v-13.48h53.162V-47.255H-93.3v-13.48ZM37.891-7.859H56.782L22.417-74.311H-.652L-34.922-7.859h18.8L-9.005-22H30.771ZM-2.645-34.724,10.93-61.685,24.41-34.724ZM123.709-74.311H42.068v14.335H74.344V-7.859H91.432V-59.976h32.277Zm75.85,13.575V-74.311H129.31V-7.859h70.249V-21.434H146.4v-13.48h53.162V-47.255H146.4v-13.48Zm7.215,40.156V-7.859h16.233V-20.579Z" transform="translate(-10083.848 -12415.001)" fill="none" stroke="#fff" stroke-width="1" opacity="0.2"/><path d="M-283.073-41.18c0,22.119,12.531,34.27,41.77,34.27,26.486,0,39.776-10.158,41.485-29.429h-17.372c-1.614,10.822-9.968,15.094-24.113,15.094-17.277,0-24.682-6.265-24.682-19.936,0-13.575,7.31-19.746,24.682-19.746,14.24,0,22.5,4.177,24.113,14.9h17.372c-1.709-19.176-15-29.239-41.485-29.239C-270.542-75.26-283.073-63.2-283.073-41.18Zm167.08-8.734c0-14.809-10.348-24.4-25.442-24.4h-52.212V-7.859h17.088V-25.611h27.53L-138.3-7.859h20.126L-130.423-27.6C-121.5-31.117-115.993-39.091-115.993-49.913ZM-176.56-59.976h30.378c5.126,0,13.1,0,13.1,10.063,0,9.968-7.974,9.968-13.1,9.968H-176.56Zm136.417-.759V-74.311h-70.249V-7.859h70.249V-21.434H-93.3v-13.48h53.162V-47.255H-93.3v-13.48ZM37.891-7.859H56.782L22.417-74.311H-.652L-34.922-7.859h18.8L-9.005-22H30.771ZM-2.645-34.724,10.93-61.685,24.41-34.724ZM123.709-74.311H42.068v14.335H74.344V-7.859H91.432V-59.976h32.277Zm75.85,13.575V-74.311H129.31V-7.859h70.249V-21.434H146.4v-13.48h53.162V-47.255H146.4v-13.48Zm7.215,40.156V-7.859h16.233V-20.579Z" transform="translate(-8521.056 -12415.001)" fill="none" stroke="#fff" stroke-width="1" opacity="0.2"/><path d="M-283.073-41.18c0,22.119,12.531,34.27,41.77,34.27,26.486,0,39.776-10.158,41.485-29.429h-17.372c-1.614,10.822-9.968,15.094-24.113,15.094-17.277,0-24.682-6.265-24.682-19.936,0-13.575,7.31-19.746,24.682-19.746,14.24,0,22.5,4.177,24.113,14.9h17.372c-1.709-19.176-15-29.239-41.485-29.239C-270.542-75.26-283.073-63.2-283.073-41.18Zm167.08-8.734c0-14.809-10.348-24.4-25.442-24.4h-52.212V-7.859h17.088V-25.611h27.53L-138.3-7.859h20.126L-130.423-27.6C-121.5-31.117-115.993-39.091-115.993-49.913ZM-176.56-59.976h30.378c5.126,0,13.1,0,13.1,10.063,0,9.968-7.974,9.968-13.1,9.968H-176.56Zm136.417-.759V-74.311h-70.249V-7.859h70.249V-21.434H-93.3v-13.48h53.162V-47.255H-93.3v-13.48ZM37.891-7.859H56.782L22.417-74.311H-.652L-34.922-7.859h18.8L-9.005-22H30.771ZM-2.645-34.724,10.93-61.685,24.41-34.724ZM123.709-74.311H42.068v14.335H74.344V-7.859H91.432V-59.976h32.277Zm75.85,13.575V-74.311H129.31V-7.859h70.249V-21.434H146.4v-13.48h53.162V-47.255H146.4v-13.48Zm7.215,40.156V-7.859h16.233V-20.579Z" transform="translate(-11646.635 -12415.001)" fill="none" stroke="#fff" stroke-width="1" opacity="0.2"/><path d="M-283.073-41.18c0,22.119,12.531,34.27,41.77,34.27,26.486,0,39.776-10.158,41.485-29.429h-17.372c-1.614,10.822-9.968,15.094-24.113,15.094-17.277,0-24.682-6.265-24.682-19.936,0-13.575,7.31-19.746,24.682-19.746,14.24,0,22.5,4.177,24.113,14.9h17.372c-1.709-19.176-15-29.239-41.485-29.239C-270.542-75.26-283.073-63.2-283.073-41.18Zm167.08-8.734c0-14.809-10.348-24.4-25.442-24.4h-52.212V-7.859h17.088V-25.611h27.53L-138.3-7.859h20.126L-130.423-27.6C-121.5-31.117-115.993-39.091-115.993-49.913ZM-176.56-59.976h30.378c5.126,0,13.1,0,13.1,10.063,0,9.968-7.974,9.968-13.1,9.968H-176.56Zm136.417-.759V-74.311h-70.249V-7.859h70.249V-21.434H-93.3v-13.48h53.162V-47.255H-93.3v-13.48ZM37.891-7.859H56.782L22.417-74.311H-.652L-34.922-7.859h18.8L-9.005-22H30.771ZM-2.645-34.724,10.93-61.685,24.41-34.724ZM123.709-74.311H42.068v14.335H74.344V-7.859H91.432V-59.976h32.277Zm75.85,13.575V-74.311H129.31V-7.859h70.249V-21.434H146.4v-13.48h53.162V-47.255H146.4v-13.48Zm7.215,40.156V-7.859h16.233V-20.579Z" transform="translate(-10594.212 -12133.787)" fill="none" stroke="#fff" stroke-width="1" opacity="0.2"/><path d="M-283.073-41.18c0,22.119,12.531,34.27,41.77,34.27,26.486,0,39.776-10.158,41.485-29.429h-17.372c-1.614,10.822-9.968,15.094-24.113,15.094-17.277,0-24.682-6.265-24.682-19.936,0-13.575,7.31-19.746,24.682-19.746,14.24,0,22.5,4.177,24.113,14.9h17.372c-1.709-19.176-15-29.239-41.485-29.239C-270.542-75.26-283.073-63.2-283.073-41.18Zm167.08-8.734c0-14.809-10.348-24.4-25.442-24.4h-52.212V-7.859h17.088V-25.611h27.53L-138.3-7.859h20.126L-130.423-27.6C-121.5-31.117-115.993-39.091-115.993-49.913ZM-176.56-59.976h30.378c5.126,0,13.1,0,13.1,10.063,0,9.968-7.974,9.968-13.1,9.968H-176.56Zm136.417-.759V-74.311h-70.249V-7.859h70.249V-21.434H-93.3v-13.48h53.162V-47.255H-93.3v-13.48ZM37.891-7.859H56.782L22.417-74.311H-.652L-34.922-7.859h18.8L-9.005-22H30.771ZM-2.645-34.724,10.93-61.685,24.41-34.724ZM123.709-74.311H42.068v14.335H74.344V-7.859H91.432V-59.976h32.277Zm75.85,13.575V-74.311H129.31V-7.859h70.249V-21.434H146.4v-13.48h53.162V-47.255H146.4v-13.48Zm7.215,40.156V-7.859h16.233V-20.579Z" transform="translate(-9031.421 -12133.787)" fill="none" stroke="#fff" stroke-width="1" opacity="0.2"/><path d="M-283.073-41.18c0,22.119,12.531,34.27,41.77,34.27,26.486,0,39.776-10.158,41.485-29.429h-17.372c-1.614,10.822-9.968,15.094-24.113,15.094-17.277,0-24.682-6.265-24.682-19.936,0-13.575,7.31-19.746,24.682-19.746,14.24,0,22.5,4.177,24.113,14.9h17.372c-1.709-19.176-15-29.239-41.485-29.239C-270.542-75.26-283.073-63.2-283.073-41.18Zm167.08-8.734c0-14.809-10.348-24.4-25.442-24.4h-52.212V-7.859h17.088V-25.611h27.53L-138.3-7.859h20.126L-130.423-27.6C-121.5-31.117-115.993-39.091-115.993-49.913ZM-176.56-59.976h30.378c5.126,0,13.1,0,13.1,10.063,0,9.968-7.974,9.968-13.1,9.968H-176.56Zm136.417-.759V-74.311h-70.249V-7.859h70.249V-21.434H-93.3v-13.48h53.162V-47.255H-93.3v-13.48ZM37.891-7.859H56.782L22.417-74.311H-.652L-34.922-7.859h18.8L-9.005-22H30.771ZM-2.645-34.724,10.93-61.685,24.41-34.724ZM123.709-74.311H42.068v14.335H74.344V-7.859H91.432V-59.976h32.277Zm75.85,13.575V-74.311H129.31V-7.859h70.249V-21.434H146.4v-13.48h53.162V-47.255H146.4v-13.48Zm7.215,40.156V-7.859h16.233V-20.579Z" transform="translate(-12157 -12133.787)" fill="none" stroke="#fff" stroke-width="1" opacity="0.2"/><path d="M-473.97-49.8c0-14.809-10.348-24.4-25.442-24.4h-52.212V-7.748h17.088V-25.5h27.53l10.727,17.752h20.125L-488.4-27.494C-479.476-31.006-473.97-38.98-473.97-49.8Zm-60.566-10.063h30.378c5.126,0,13.1,0,13.1,10.063,0,9.968-7.974,9.968-13.1,9.968h-30.378Zm136.417-.759V-74.2h-70.249V-7.748h70.249V-21.323h-53.162V-34.8h53.162V-47.144h-53.162v-13.48ZM-339.737-74.2h-52.212V-7.748h17.088V-25.5h35.125c15.094,0,25.442-9.493,25.442-24.3S-324.643-74.2-339.737-74.2Zm-4.747,34.365h-30.378V-59.865h30.378c5.126,0,13.1,0,13.1,10.063C-331.383-39.835-339.357-39.835-344.483-39.835Zm106.608-20.79V-74.2h-70.249V-7.748h70.249V-21.323h-53.162V-34.8h53.162V-47.144h-53.162v-13.48Zm78.034,52.877h18.891L-175.315-74.2h-23.068l-34.27,66.452h18.8l7.12-14.145h39.776Zm-40.536-26.866L-186.8-61.574l13.48,26.961ZM-74.023-74.2h-81.641v14.335h32.277V-7.748H-106.3V-59.865h32.277Zm-3.892,53.731V-7.748h16.233V-20.469Z" transform="translate(-9768.207 -12133.897)" fill="#fff"/><path d="M-473.97-49.8c0-14.809-10.348-24.4-25.442-24.4h-52.212V-7.748h17.088V-25.5h27.53l10.727,17.752h20.125L-488.4-27.494C-479.476-31.006-473.97-38.98-473.97-49.8Zm-60.566-10.063h30.378c5.126,0,13.1,0,13.1,10.063,0,9.968-7.974,9.968-13.1,9.968h-30.378Zm136.417-.759V-74.2h-70.249V-7.748h70.249V-21.323h-53.162V-34.8h53.162V-47.144h-53.162v-13.48ZM-339.737-74.2h-52.212V-7.748h17.088V-25.5h35.125c15.094,0,25.442-9.493,25.442-24.3S-324.643-74.2-339.737-74.2Zm-4.747,34.365h-30.378V-59.865h30.378c5.126,0,13.1,0,13.1,10.063C-331.383-39.835-339.357-39.835-344.483-39.835Zm106.608-20.79V-74.2h-70.249V-7.748h70.249V-21.323h-53.162V-34.8h53.162V-47.144h-53.162v-13.48Zm78.034,52.877h18.891L-175.315-74.2h-23.068l-34.27,66.452h18.8l7.12-14.145h39.776Zm-40.536-26.866L-186.8-61.574l13.48,26.961ZM-74.023-74.2h-81.641v14.335h32.277V-7.748H-106.3V-59.865h32.277Zm-3.892,53.731V-7.748h16.233V-20.469Z" transform="translate(-11330.995 -12133.897)" fill="none" stroke="#fff" stroke-width="1" opacity="0.2"/><path d="M-473.97-49.8c0-14.809-10.348-24.4-25.442-24.4h-52.212V-7.748h17.088V-25.5h27.53l10.727,17.752h20.125L-488.4-27.494C-479.476-31.006-473.97-38.98-473.97-49.8Zm-60.566-10.063h30.378c5.126,0,13.1,0,13.1,10.063,0,9.968-7.974,9.968-13.1,9.968h-30.378Zm136.417-.759V-74.2h-70.249V-7.748h70.249V-21.323h-53.162V-34.8h53.162V-47.144h-53.162v-13.48ZM-339.737-74.2h-52.212V-7.748h17.088V-25.5h35.125c15.094,0,25.442-9.493,25.442-24.3S-324.643-74.2-339.737-74.2Zm-4.747,34.365h-30.378V-59.865h30.378c5.126,0,13.1,0,13.1,10.063C-331.383-39.835-339.357-39.835-344.483-39.835Zm106.608-20.79V-74.2h-70.249V-7.748h70.249V-21.323h-53.162V-34.8h53.162V-47.144h-53.162v-13.48Zm78.034,52.877h18.891L-175.315-74.2h-23.068l-34.27,66.452h18.8l7.12-14.145h39.776Zm-40.536-26.866L-186.8-61.574l13.48,26.961ZM-74.023-74.2h-81.641v14.335h32.277V-7.748H-106.3V-59.865h32.277Zm-3.892,53.731V-7.748h16.233V-20.469Z" transform="translate(-8205.885 -12133.897)" fill="none" stroke="#fff" stroke-width="1" opacity="0.2"/><path d="M-473.97-49.8c0-14.809-10.348-24.4-25.442-24.4h-52.212V-7.748h17.088V-25.5h27.53l10.727,17.752h20.125L-488.4-27.494C-479.476-31.006-473.97-38.98-473.97-49.8Zm-60.566-10.063h30.378c5.126,0,13.1,0,13.1,10.063,0,9.968-7.974,9.968-13.1,9.968h-30.378Zm136.417-.759V-74.2h-70.249V-7.748h70.249V-21.323h-53.162V-34.8h53.162V-47.144h-53.162v-13.48ZM-339.737-74.2h-52.212V-7.748h17.088V-25.5h35.125c15.094,0,25.442-9.493,25.442-24.3S-324.643-74.2-339.737-74.2Zm-4.747,34.365h-30.378V-59.865h30.378c5.126,0,13.1,0,13.1,10.063C-331.383-39.835-339.357-39.835-344.483-39.835Zm106.608-20.79V-74.2h-70.249V-7.748h70.249V-21.323h-53.162V-34.8h53.162V-47.144h-53.162v-13.48Zm78.034,52.877h18.891L-175.315-74.2h-23.068l-34.27,66.452h18.8l7.12-14.145h39.776Zm-40.536-26.866L-186.8-61.574l13.48,26.961ZM-74.023-74.2h-81.641v14.335h32.277V-7.748H-106.3V-59.865h32.277Zm-3.892,53.731V-7.748h16.233V-20.469Z" transform="translate(-9510.527 -12274.504)" fill="none" stroke="#fff" stroke-width="1" opacity="0.2"/><path d="M-473.97-49.8c0-14.809-10.348-24.4-25.442-24.4h-52.212V-7.748h17.088V-25.5h27.53l10.727,17.752h20.125L-488.4-27.494C-479.476-31.006-473.97-38.98-473.97-49.8Zm-60.566-10.063h30.378c5.126,0,13.1,0,13.1,10.063,0,9.968-7.974,9.968-13.1,9.968h-30.378Zm136.417-.759V-74.2h-70.249V-7.748h70.249V-21.323h-53.162V-34.8h53.162V-47.144h-53.162v-13.48ZM-339.737-74.2h-52.212V-7.748h17.088V-25.5h35.125c15.094,0,25.442-9.493,25.442-24.3S-324.643-74.2-339.737-74.2Zm-4.747,34.365h-30.378V-59.865h30.378c5.126,0,13.1,0,13.1,10.063C-331.383-39.835-339.357-39.835-344.483-39.835Zm106.608-20.79V-74.2h-70.249V-7.748h70.249V-21.323h-53.162V-34.8h53.162V-47.144h-53.162v-13.48Zm78.034,52.877h18.891L-175.315-74.2h-23.068l-34.27,66.452h18.8l7.12-14.145h39.776Zm-40.536-26.866L-186.8-61.574l13.48,26.961ZM-74.023-74.2h-81.641v14.335h32.277V-7.748H-106.3V-59.865h32.277Zm-3.892,53.731V-7.748h16.233V-20.469Z" transform="translate(-11073.315 -12274.504)" fill="none" stroke="#fff" stroke-width="1" opacity="0.2"/><path d="M-473.97-49.8c0-14.809-10.348-24.4-25.442-24.4h-52.212V-7.748h17.088V-25.5h27.53l10.727,17.752h20.125L-488.4-27.494C-479.476-31.006-473.97-38.98-473.97-49.8Zm-60.566-10.063h30.378c5.126,0,13.1,0,13.1,10.063,0,9.968-7.974,9.968-13.1,9.968h-30.378Zm136.417-.759V-74.2h-70.249V-7.748h70.249V-21.323h-53.162V-34.8h53.162V-47.144h-53.162v-13.48ZM-339.737-74.2h-52.212V-7.748h17.088V-25.5h35.125c15.094,0,25.442-9.493,25.442-24.3S-324.643-74.2-339.737-74.2Zm-4.747,34.365h-30.378V-59.865h30.378c5.126,0,13.1,0,13.1,10.063C-331.383-39.835-339.357-39.835-344.483-39.835Zm106.608-20.79V-74.2h-70.249V-7.748h70.249V-21.323h-53.162V-34.8h53.162V-47.144h-53.162v-13.48Zm78.034,52.877h18.891L-175.315-74.2h-23.068l-34.27,66.452h18.8l7.12-14.145h39.776Zm-40.536-26.866L-186.8-61.574l13.48,26.961ZM-74.023-74.2h-81.641v14.335h32.277V-7.748H-106.3V-59.865h32.277Zm-3.892,53.731V-7.748h16.233V-20.469Z" transform="translate(-9257.843 -12415.111)" fill="none" stroke="#fff" stroke-width="1" opacity="0.2"/><path d="M-473.97-49.8c0-14.809-10.348-24.4-25.442-24.4h-52.212V-7.748h17.088V-25.5h27.53l10.727,17.752h20.125L-488.4-27.494C-479.476-31.006-473.97-38.98-473.97-49.8Zm-60.566-10.063h30.378c5.126,0,13.1,0,13.1,10.063,0,9.968-7.974,9.968-13.1,9.968h-30.378Zm136.417-.759V-74.2h-70.249V-7.748h70.249V-21.323h-53.162V-34.8h53.162V-47.144h-53.162v-13.48ZM-339.737-74.2h-52.212V-7.748h17.088V-25.5h35.125c15.094,0,25.442-9.493,25.442-24.3S-324.643-74.2-339.737-74.2Zm-4.747,34.365h-30.378V-59.865h30.378c5.126,0,13.1,0,13.1,10.063C-331.383-39.835-339.357-39.835-344.483-39.835Zm106.608-20.79V-74.2h-70.249V-7.748h70.249V-21.323h-53.162V-34.8h53.162V-47.144h-53.162v-13.48Zm78.034,52.877h18.891L-175.315-74.2h-23.068l-34.27,66.452h18.8l7.12-14.145h39.776Zm-40.536-26.866L-186.8-61.574l13.48,26.961ZM-74.023-74.2h-81.641v14.335h32.277V-7.748H-106.3V-59.865h32.277Zm-3.892,53.731V-7.748h16.233V-20.469Z" transform="translate(-10820.631 -12415.111)" fill="none" stroke="#fff" stroke-width="1" opacity="0.2"/></g></svg>