<svg xmlns="http://www.w3.org/2000/svg" width="30.66" height="30.66" viewBox="0 0 30.66 30.66"><path d="M23.33,8A15.33,15.33,0,1,0,38.66,23.33,15.347,15.347,0,0,0,23.33,8Zm10.136,7.069a13.032,13.032,0,0,1,2.957,8.157A30.6,30.6,0,0,0,27.3,22.8c-.356-.868-.691-1.631-1.151-2.572a17.442,17.442,0,0,0,7.312-5.163ZM32.01,13.555a14.784,14.784,0,0,1-6.863,4.73,69.894,69.894,0,0,0-4.886-7.665A13.06,13.06,0,0,1,32.01,13.555ZM17.763,11.5a83.55,83.55,0,0,1,4.855,7.573,48.841,48.841,0,0,1-12.105,1.6A13.142,13.142,0,0,1,17.763,11.5ZM10.236,23.35c0-.134,0-.267.007-.4A48.3,48.3,0,0,0,23.7,21.086c.375.734.733,1.478,1.062,2.222a20.282,20.282,0,0,0-11.159,8.8A13.042,13.042,0,0,1,10.236,23.35Zm5.057,10.33c1.368-2.8,5.08-6.405,10.359-8.206a54.429,54.429,0,0,1,2.793,9.93A13.067,13.067,0,0,1,15.293,33.68Zm15.353.525A56.515,56.515,0,0,0,28.1,24.869a19.219,19.219,0,0,1,8.156.56A13.117,13.117,0,0,1,30.646,34.2Z" transform="translate(-8 -8)" fill="#feffff"/></svg>