<svg xmlns="http://www.w3.org/2000/svg" width="30.85" height="30.851" viewBox="0 0 30.85 30.851"><path d="M20.021,111.423l10.385-10.385a1.54,1.54,0,0,0,0-2.177l-2.413-2.413a1.54,1.54,0,0,0-2.177,0L15.432,106.834,5.047,96.449a1.54,1.54,0,0,0-2.177,0L.458,98.861a1.54,1.54,0,0,0,0,2.177l10.385,10.385L.458,121.808a1.54,1.54,0,0,0,0,2.177L2.871,126.4a1.54,1.54,0,0,0,2.177,0l10.384-10.386L25.817,126.4a1.54,1.54,0,0,0,2.177,0l2.413-2.413a1.54,1.54,0,0,0,0-2.177Z" transform="translate(-0.007 -95.998)" fill="#fff"/></svg>