<svg xmlns="http://www.w3.org/2000/svg" xmlns:xlink="http://www.w3.org/1999/xlink" width="3636" height="350" viewBox="0 0 3636 350"><defs><clipPath id="a"><rect width="3636" height="350" transform="translate(-18936 -15068)"/></clipPath></defs><g transform="translate(18936 15068)" clip-path="url(#a)"><path d="M-234.1-37.206c0,24.7,13.992,38.266,46.64,38.266,29.574,0,44.414-11.342,46.322-32.86h-19.4c-1.8,12.084-11.13,16.854-26.924,16.854-19.292,0-27.56-7-27.56-22.26,0-15.158,8.162-22.048,27.56-22.048,15.9,0,25.122,4.664,26.924,16.642h19.4c-1.908-21.412-16.748-32.648-46.322-32.648C-220.109-75.26-234.1-61.8-234.1-37.206ZM-65.455,0h21.094L-82.733-74.2h-25.758L-146.757,0h20.988l7.95-15.794H-73.4Zm-45.262-30,15.158-30.1L-80.507-30Zm64.13,4.452C-46.587-4.134-28.461,1.06,1.961,1.06c27.454,0,46.216-4.028,46.216-23.85C48.177-41.552,30.051-43.142.8-44.732-20.829-46-25.281-47.064-25.281-52.788c0-5.512,4.452-7.314,23.214-7.314,19.822,0,27.984,2.014,27.984,10.176H45C45-68.264,28.037-75.26.053-75.26c-27.772,0-44.414,5.194-44.414,21.518C-44.361-37.1-31.535-32.012.8-30.528c24.062,1.166,28.3,2.226,28.3,8.374,0,5.83-6.042,8.056-26.076,8.056-24.168,0-30.528-3.6-30.528-11.448Zm180.094-33.5V-74.2H55.067V0h78.44V-15.158H74.147V-30.21h59.36V-43.99H74.147V-59.042Zm5.83,33.5c0,21.412,18.126,26.606,48.548,26.606,27.454,0,46.216-4.028,46.216-23.85,0-18.762-18.126-20.352-47.382-21.942-21.624-1.272-26.076-2.332-26.076-8.056,0-5.512,4.452-7.314,23.214-7.314,19.822,0,27.984,2.014,27.984,10.176h19.08c0-18.338-16.96-25.334-44.944-25.334-27.772,0-44.414,5.194-44.414,21.518,0,16.642,12.826,21.73,45.156,23.214,24.062,1.166,28.3,2.226,28.3,8.374,0,5.83-6.042,8.056-26.076,8.056-24.168,0-30.528-3.6-30.528-11.448Z" transform="translate(-17118 -14856)" fill="#feffff"/><path d="M-234.1-37.206c0,24.7,13.992,38.266,46.64,38.266,29.574,0,44.414-11.342,46.322-32.86h-19.4c-1.8,12.084-11.13,16.854-26.924,16.854-19.292,0-27.56-7-27.56-22.26,0-15.158,8.162-22.048,27.56-22.048,15.9,0,25.122,4.664,26.924,16.642h19.4c-1.908-21.412-16.748-32.648-46.322-32.648C-220.109-75.26-234.1-61.8-234.1-37.206ZM-65.455,0h21.094L-82.733-74.2h-25.758L-146.757,0h20.988l7.95-15.794H-73.4Zm-45.262-30,15.158-30.1L-80.507-30Zm64.13,4.452C-46.587-4.134-28.461,1.06,1.961,1.06c27.454,0,46.216-4.028,46.216-23.85C48.177-41.552,30.051-43.142.8-44.732-20.829-46-25.281-47.064-25.281-52.788c0-5.512,4.452-7.314,23.214-7.314,19.822,0,27.984,2.014,27.984,10.176H45C45-68.264,28.037-75.26.053-75.26c-27.772,0-44.414,5.194-44.414,21.518C-44.361-37.1-31.535-32.012.8-30.528c24.062,1.166,28.3,2.226,28.3,8.374,0,5.83-6.042,8.056-26.076,8.056-24.168,0-30.528-3.6-30.528-11.448Zm180.094-33.5V-74.2H55.067V0h78.44V-15.158H74.147V-30.21h59.36V-43.99H74.147V-59.042Zm5.83,33.5c0,21.412,18.126,26.606,48.548,26.606,27.454,0,46.216-4.028,46.216-23.85,0-18.762-18.126-20.352-47.382-21.942-21.624-1.272-26.076-2.332-26.076-8.056,0-5.512,4.452-7.314,23.214-7.314,19.822,0,27.984,2.014,27.984,10.176h19.08c0-18.338-16.96-25.334-44.944-25.334-27.772,0-44.414,5.194-44.414,21.518,0,16.642,12.826,21.73,45.156,23.214,24.062,1.166,28.3,2.226,28.3,8.374,0,5.83-6.042,8.056-26.076,8.056-24.168,0-30.528-3.6-30.528-11.448Z" transform="translate(-16854 -14992)" fill="none" stroke="#fff" stroke-width="1" opacity="0.2"/><path d="M-234.1-37.206c0,24.7,13.992,38.266,46.64,38.266,29.574,0,44.414-11.342,46.322-32.86h-19.4c-1.8,12.084-11.13,16.854-26.924,16.854-19.292,0-27.56-7-27.56-22.26,0-15.158,8.162-22.048,27.56-22.048,15.9,0,25.122,4.664,26.924,16.642h19.4c-1.908-21.412-16.748-32.648-46.322-32.648C-220.109-75.26-234.1-61.8-234.1-37.206ZM-65.455,0h21.094L-82.733-74.2h-25.758L-146.757,0h20.988l7.95-15.794H-73.4Zm-45.262-30,15.158-30.1L-80.507-30Zm64.13,4.452C-46.587-4.134-28.461,1.06,1.961,1.06c27.454,0,46.216-4.028,46.216-23.85C48.177-41.552,30.051-43.142.8-44.732-20.829-46-25.281-47.064-25.281-52.788c0-5.512,4.452-7.314,23.214-7.314,19.822,0,27.984,2.014,27.984,10.176H45C45-68.264,28.037-75.26.053-75.26c-27.772,0-44.414,5.194-44.414,21.518C-44.361-37.1-31.535-32.012.8-30.528c24.062,1.166,28.3,2.226,28.3,8.374,0,5.83-6.042,8.056-26.076,8.056-24.168,0-30.528-3.6-30.528-11.448Zm180.094-33.5V-74.2H55.067V0h78.44V-15.158H74.147V-30.21h59.36V-43.99H74.147V-59.042Zm5.83,33.5c0,21.412,18.126,26.606,48.548,26.606,27.454,0,46.216-4.028,46.216-23.85,0-18.762-18.126-20.352-47.382-21.942-21.624-1.272-26.076-2.332-26.076-8.056,0-5.512,4.452-7.314,23.214-7.314,19.822,0,27.984,2.014,27.984,10.176h19.08c0-18.338-16.96-25.334-44.944-25.334-27.772,0-44.414,5.194-44.414,21.518,0,16.642,12.826,21.73,45.156,23.214,24.062,1.166,28.3,2.226,28.3,8.374,0,5.83-6.042,8.056-26.076,8.056-24.168,0-30.528-3.6-30.528-11.448Z" transform="translate(-16854 -14720)" fill="none" stroke="#fff" stroke-width="1" opacity="0.2"/><path d="M-234.1-37.206c0,24.7,13.992,38.266,46.64,38.266,29.574,0,44.414-11.342,46.322-32.86h-19.4c-1.8,12.084-11.13,16.854-26.924,16.854-19.292,0-27.56-7-27.56-22.26,0-15.158,8.162-22.048,27.56-22.048,15.9,0,25.122,4.664,26.924,16.642h19.4c-1.908-21.412-16.748-32.648-46.322-32.648C-220.109-75.26-234.1-61.8-234.1-37.206ZM-65.455,0h21.094L-82.733-74.2h-25.758L-146.757,0h20.988l7.95-15.794H-73.4Zm-45.262-30,15.158-30.1L-80.507-30Zm64.13,4.452C-46.587-4.134-28.461,1.06,1.961,1.06c27.454,0,46.216-4.028,46.216-23.85C48.177-41.552,30.051-43.142.8-44.732-20.829-46-25.281-47.064-25.281-52.788c0-5.512,4.452-7.314,23.214-7.314,19.822,0,27.984,2.014,27.984,10.176H45C45-68.264,28.037-75.26.053-75.26c-27.772,0-44.414,5.194-44.414,21.518C-44.361-37.1-31.535-32.012.8-30.528c24.062,1.166,28.3,2.226,28.3,8.374,0,5.83-6.042,8.056-26.076,8.056-24.168,0-30.528-3.6-30.528-11.448Zm180.094-33.5V-74.2H55.067V0h78.44V-15.158H74.147V-30.21h59.36V-43.99H74.147V-59.042Zm5.83,33.5c0,21.412,18.126,26.606,48.548,26.606,27.454,0,46.216-4.028,46.216-23.85,0-18.762-18.126-20.352-47.382-21.942-21.624-1.272-26.076-2.332-26.076-8.056,0-5.512,4.452-7.314,23.214-7.314,19.822,0,27.984,2.014,27.984,10.176h19.08c0-18.338-16.96-25.334-44.944-25.334-27.772,0-44.414,5.194-44.414,21.518,0,16.642,12.826,21.73,45.156,23.214,24.062,1.166,28.3,2.226,28.3,8.374,0,5.83-6.042,8.056-26.076,8.056-24.168,0-30.528-3.6-30.528-11.448Z" transform="translate(-16590 -14856)" fill="none" stroke="#fff" stroke-width="1" opacity="0.2"/><path d="M-234.1-37.206c0,24.7,13.992,38.266,46.64,38.266,29.574,0,44.414-11.342,46.322-32.86h-19.4c-1.8,12.084-11.13,16.854-26.924,16.854-19.292,0-27.56-7-27.56-22.26,0-15.158,8.162-22.048,27.56-22.048,15.9,0,25.122,4.664,26.924,16.642h19.4c-1.908-21.412-16.748-32.648-46.322-32.648C-220.109-75.26-234.1-61.8-234.1-37.206ZM-65.455,0h21.094L-82.733-74.2h-25.758L-146.757,0h20.988l7.95-15.794H-73.4Zm-45.262-30,15.158-30.1L-80.507-30Zm64.13,4.452C-46.587-4.134-28.461,1.06,1.961,1.06c27.454,0,46.216-4.028,46.216-23.85C48.177-41.552,30.051-43.142.8-44.732-20.829-46-25.281-47.064-25.281-52.788c0-5.512,4.452-7.314,23.214-7.314,19.822,0,27.984,2.014,27.984,10.176H45C45-68.264,28.037-75.26.053-75.26c-27.772,0-44.414,5.194-44.414,21.518C-44.361-37.1-31.535-32.012.8-30.528c24.062,1.166,28.3,2.226,28.3,8.374,0,5.83-6.042,8.056-26.076,8.056-24.168,0-30.528-3.6-30.528-11.448Zm180.094-33.5V-74.2H55.067V0h78.44V-15.158H74.147V-30.21h59.36V-43.99H74.147V-59.042Zm5.83,33.5c0,21.412,18.126,26.606,48.548,26.606,27.454,0,46.216-4.028,46.216-23.85,0-18.762-18.126-20.352-47.382-21.942-21.624-1.272-26.076-2.332-26.076-8.056,0-5.512,4.452-7.314,23.214-7.314,19.822,0,27.984,2.014,27.984,10.176h19.08c0-18.338-16.96-25.334-44.944-25.334-27.772,0-44.414,5.194-44.414,21.518,0,16.642,12.826,21.73,45.156,23.214,24.062,1.166,28.3,2.226,28.3,8.374,0,5.83-6.042,8.056-26.076,8.056-24.168,0-30.528-3.6-30.528-11.448Z" transform="translate(-16326 -14992)" fill="none" stroke="#fff" stroke-width="1" opacity="0.2"/><path d="M-234.1-37.206c0,24.7,13.992,38.266,46.64,38.266,29.574,0,44.414-11.342,46.322-32.86h-19.4c-1.8,12.084-11.13,16.854-26.924,16.854-19.292,0-27.56-7-27.56-22.26,0-15.158,8.162-22.048,27.56-22.048,15.9,0,25.122,4.664,26.924,16.642h19.4c-1.908-21.412-16.748-32.648-46.322-32.648C-220.109-75.26-234.1-61.8-234.1-37.206ZM-65.455,0h21.094L-82.733-74.2h-25.758L-146.757,0h20.988l7.95-15.794H-73.4Zm-45.262-30,15.158-30.1L-80.507-30Zm64.13,4.452C-46.587-4.134-28.461,1.06,1.961,1.06c27.454,0,46.216-4.028,46.216-23.85C48.177-41.552,30.051-43.142.8-44.732-20.829-46-25.281-47.064-25.281-52.788c0-5.512,4.452-7.314,23.214-7.314,19.822,0,27.984,2.014,27.984,10.176H45C45-68.264,28.037-75.26.053-75.26c-27.772,0-44.414,5.194-44.414,21.518C-44.361-37.1-31.535-32.012.8-30.528c24.062,1.166,28.3,2.226,28.3,8.374,0,5.83-6.042,8.056-26.076,8.056-24.168,0-30.528-3.6-30.528-11.448Zm180.094-33.5V-74.2H55.067V0h78.44V-15.158H74.147V-30.21h59.36V-43.99H74.147V-59.042Zm5.83,33.5c0,21.412,18.126,26.606,48.548,26.606,27.454,0,46.216-4.028,46.216-23.85,0-18.762-18.126-20.352-47.382-21.942-21.624-1.272-26.076-2.332-26.076-8.056,0-5.512,4.452-7.314,23.214-7.314,19.822,0,27.984,2.014,27.984,10.176h19.08c0-18.338-16.96-25.334-44.944-25.334-27.772,0-44.414,5.194-44.414,21.518,0,16.642,12.826,21.73,45.156,23.214,24.062,1.166,28.3,2.226,28.3,8.374,0,5.83-6.042,8.056-26.076,8.056-24.168,0-30.528-3.6-30.528-11.448Z" transform="translate(-15798 -14992)" fill="none" stroke="#fff" stroke-width="1" opacity="0.2"/><path d="M-234.1-37.206c0,24.7,13.992,38.266,46.64,38.266,29.574,0,44.414-11.342,46.322-32.86h-19.4c-1.8,12.084-11.13,16.854-26.924,16.854-19.292,0-27.56-7-27.56-22.26,0-15.158,8.162-22.048,27.56-22.048,15.9,0,25.122,4.664,26.924,16.642h19.4c-1.908-21.412-16.748-32.648-46.322-32.648C-220.109-75.26-234.1-61.8-234.1-37.206ZM-65.455,0h21.094L-82.733-74.2h-25.758L-146.757,0h20.988l7.95-15.794H-73.4Zm-45.262-30,15.158-30.1L-80.507-30Zm64.13,4.452C-46.587-4.134-28.461,1.06,1.961,1.06c27.454,0,46.216-4.028,46.216-23.85C48.177-41.552,30.051-43.142.8-44.732-20.829-46-25.281-47.064-25.281-52.788c0-5.512,4.452-7.314,23.214-7.314,19.822,0,27.984,2.014,27.984,10.176H45C45-68.264,28.037-75.26.053-75.26c-27.772,0-44.414,5.194-44.414,21.518C-44.361-37.1-31.535-32.012.8-30.528c24.062,1.166,28.3,2.226,28.3,8.374,0,5.83-6.042,8.056-26.076,8.056-24.168,0-30.528-3.6-30.528-11.448Zm180.094-33.5V-74.2H55.067V0h78.44V-15.158H74.147V-30.21h59.36V-43.99H74.147V-59.042Zm5.83,33.5c0,21.412,18.126,26.606,48.548,26.606,27.454,0,46.216-4.028,46.216-23.85,0-18.762-18.126-20.352-47.382-21.942-21.624-1.272-26.076-2.332-26.076-8.056,0-5.512,4.452-7.314,23.214-7.314,19.822,0,27.984,2.014,27.984,10.176h19.08c0-18.338-16.96-25.334-44.944-25.334-27.772,0-44.414,5.194-44.414,21.518,0,16.642,12.826,21.73,45.156,23.214,24.062,1.166,28.3,2.226,28.3,8.374,0,5.83-6.042,8.056-26.076,8.056-24.168,0-30.528-3.6-30.528-11.448Z" transform="translate(-16326 -14720)" fill="none" stroke="#fff" stroke-width="1" opacity="0.2"/><path d="M-234.1-37.206c0,24.7,13.992,38.266,46.64,38.266,29.574,0,44.414-11.342,46.322-32.86h-19.4c-1.8,12.084-11.13,16.854-26.924,16.854-19.292,0-27.56-7-27.56-22.26,0-15.158,8.162-22.048,27.56-22.048,15.9,0,25.122,4.664,26.924,16.642h19.4c-1.908-21.412-16.748-32.648-46.322-32.648C-220.109-75.26-234.1-61.8-234.1-37.206ZM-65.455,0h21.094L-82.733-74.2h-25.758L-146.757,0h20.988l7.95-15.794H-73.4Zm-45.262-30,15.158-30.1L-80.507-30Zm64.13,4.452C-46.587-4.134-28.461,1.06,1.961,1.06c27.454,0,46.216-4.028,46.216-23.85C48.177-41.552,30.051-43.142.8-44.732-20.829-46-25.281-47.064-25.281-52.788c0-5.512,4.452-7.314,23.214-7.314,19.822,0,27.984,2.014,27.984,10.176H45C45-68.264,28.037-75.26.053-75.26c-27.772,0-44.414,5.194-44.414,21.518C-44.361-37.1-31.535-32.012.8-30.528c24.062,1.166,28.3,2.226,28.3,8.374,0,5.83-6.042,8.056-26.076,8.056-24.168,0-30.528-3.6-30.528-11.448Zm180.094-33.5V-74.2H55.067V0h78.44V-15.158H74.147V-30.21h59.36V-43.99H74.147V-59.042Zm5.83,33.5c0,21.412,18.126,26.606,48.548,26.606,27.454,0,46.216-4.028,46.216-23.85,0-18.762-18.126-20.352-47.382-21.942-21.624-1.272-26.076-2.332-26.076-8.056,0-5.512,4.452-7.314,23.214-7.314,19.822,0,27.984,2.014,27.984,10.176h19.08c0-18.338-16.96-25.334-44.944-25.334-27.772,0-44.414,5.194-44.414,21.518,0,16.642,12.826,21.73,45.156,23.214,24.062,1.166,28.3,2.226,28.3,8.374,0,5.83-6.042,8.056-26.076,8.056-24.168,0-30.528-3.6-30.528-11.448Z" transform="translate(-15798 -14720)" fill="none" stroke="#fff" stroke-width="1" opacity="0.2"/><path d="M-234.1-37.206c0,24.7,13.992,38.266,46.64,38.266,29.574,0,44.414-11.342,46.322-32.86h-19.4c-1.8,12.084-11.13,16.854-26.924,16.854-19.292,0-27.56-7-27.56-22.26,0-15.158,8.162-22.048,27.56-22.048,15.9,0,25.122,4.664,26.924,16.642h19.4c-1.908-21.412-16.748-32.648-46.322-32.648C-220.109-75.26-234.1-61.8-234.1-37.206ZM-65.455,0h21.094L-82.733-74.2h-25.758L-146.757,0h20.988l7.95-15.794H-73.4Zm-45.262-30,15.158-30.1L-80.507-30Zm64.13,4.452C-46.587-4.134-28.461,1.06,1.961,1.06c27.454,0,46.216-4.028,46.216-23.85C48.177-41.552,30.051-43.142.8-44.732-20.829-46-25.281-47.064-25.281-52.788c0-5.512,4.452-7.314,23.214-7.314,19.822,0,27.984,2.014,27.984,10.176H45C45-68.264,28.037-75.26.053-75.26c-27.772,0-44.414,5.194-44.414,21.518C-44.361-37.1-31.535-32.012.8-30.528c24.062,1.166,28.3,2.226,28.3,8.374,0,5.83-6.042,8.056-26.076,8.056-24.168,0-30.528-3.6-30.528-11.448Zm180.094-33.5V-74.2H55.067V0h78.44V-15.158H74.147V-30.21h59.36V-43.99H74.147V-59.042Zm5.83,33.5c0,21.412,18.126,26.606,48.548,26.606,27.454,0,46.216-4.028,46.216-23.85,0-18.762-18.126-20.352-47.382-21.942-21.624-1.272-26.076-2.332-26.076-8.056,0-5.512,4.452-7.314,23.214-7.314,19.822,0,27.984,2.014,27.984,10.176h19.08c0-18.338-16.96-25.334-44.944-25.334-27.772,0-44.414,5.194-44.414,21.518,0,16.642,12.826,21.73,45.156,23.214,24.062,1.166,28.3,2.226,28.3,8.374,0,5.83-6.042,8.056-26.076,8.056-24.168,0-30.528-3.6-30.528-11.448Z" transform="translate(-18174 -14856)" fill="none" stroke="#fff" stroke-width="1" opacity="0.2"/><path d="M-234.1-37.206c0,24.7,13.992,38.266,46.64,38.266,29.574,0,44.414-11.342,46.322-32.86h-19.4c-1.8,12.084-11.13,16.854-26.924,16.854-19.292,0-27.56-7-27.56-22.26,0-15.158,8.162-22.048,27.56-22.048,15.9,0,25.122,4.664,26.924,16.642h19.4c-1.908-21.412-16.748-32.648-46.322-32.648C-220.109-75.26-234.1-61.8-234.1-37.206ZM-65.455,0h21.094L-82.733-74.2h-25.758L-146.757,0h20.988l7.95-15.794H-73.4Zm-45.262-30,15.158-30.1L-80.507-30Zm64.13,4.452C-46.587-4.134-28.461,1.06,1.961,1.06c27.454,0,46.216-4.028,46.216-23.85C48.177-41.552,30.051-43.142.8-44.732-20.829-46-25.281-47.064-25.281-52.788c0-5.512,4.452-7.314,23.214-7.314,19.822,0,27.984,2.014,27.984,10.176H45C45-68.264,28.037-75.26.053-75.26c-27.772,0-44.414,5.194-44.414,21.518C-44.361-37.1-31.535-32.012.8-30.528c24.062,1.166,28.3,2.226,28.3,8.374,0,5.83-6.042,8.056-26.076,8.056-24.168,0-30.528-3.6-30.528-11.448Zm180.094-33.5V-74.2H55.067V0h78.44V-15.158H74.147V-30.21h59.36V-43.99H74.147V-59.042Zm5.83,33.5c0,21.412,18.126,26.606,48.548,26.606,27.454,0,46.216-4.028,46.216-23.85,0-18.762-18.126-20.352-47.382-21.942-21.624-1.272-26.076-2.332-26.076-8.056,0-5.512,4.452-7.314,23.214-7.314,19.822,0,27.984,2.014,27.984,10.176h19.08c0-18.338-16.96-25.334-44.944-25.334-27.772,0-44.414,5.194-44.414,21.518,0,16.642,12.826,21.73,45.156,23.214,24.062,1.166,28.3,2.226,28.3,8.374,0,5.83-6.042,8.056-26.076,8.056-24.168,0-30.528-3.6-30.528-11.448Z" transform="translate(-18702 -14856)" fill="none" stroke="#fff" stroke-width="1" opacity="0.2"/><path d="M-234.1-37.206c0,24.7,13.992,38.266,46.64,38.266,29.574,0,44.414-11.342,46.322-32.86h-19.4c-1.8,12.084-11.13,16.854-26.924,16.854-19.292,0-27.56-7-27.56-22.26,0-15.158,8.162-22.048,27.56-22.048,15.9,0,25.122,4.664,26.924,16.642h19.4c-1.908-21.412-16.748-32.648-46.322-32.648C-220.109-75.26-234.1-61.8-234.1-37.206ZM-65.455,0h21.094L-82.733-74.2h-25.758L-146.757,0h20.988l7.95-15.794H-73.4Zm-45.262-30,15.158-30.1L-80.507-30Zm64.13,4.452C-46.587-4.134-28.461,1.06,1.961,1.06c27.454,0,46.216-4.028,46.216-23.85C48.177-41.552,30.051-43.142.8-44.732-20.829-46-25.281-47.064-25.281-52.788c0-5.512,4.452-7.314,23.214-7.314,19.822,0,27.984,2.014,27.984,10.176H45C45-68.264,28.037-75.26.053-75.26c-27.772,0-44.414,5.194-44.414,21.518C-44.361-37.1-31.535-32.012.8-30.528c24.062,1.166,28.3,2.226,28.3,8.374,0,5.83-6.042,8.056-26.076,8.056-24.168,0-30.528-3.6-30.528-11.448Zm180.094-33.5V-74.2H55.067V0h78.44V-15.158H74.147V-30.21h59.36V-43.99H74.147V-59.042Zm5.83,33.5c0,21.412,18.126,26.606,48.548,26.606,27.454,0,46.216-4.028,46.216-23.85,0-18.762-18.126-20.352-47.382-21.942-21.624-1.272-26.076-2.332-26.076-8.056,0-5.512,4.452-7.314,23.214-7.314,19.822,0,27.984,2.014,27.984,10.176h19.08c0-18.338-16.96-25.334-44.944-25.334-27.772,0-44.414,5.194-44.414,21.518,0,16.642,12.826,21.73,45.156,23.214,24.062,1.166,28.3,2.226,28.3,8.374,0,5.83-6.042,8.056-26.076,8.056-24.168,0-30.528-3.6-30.528-11.448Z" transform="translate(-17910 -14992)" fill="none" stroke="#fff" stroke-width="1" opacity="0.2"/><path d="M-234.1-37.206c0,24.7,13.992,38.266,46.64,38.266,29.574,0,44.414-11.342,46.322-32.86h-19.4c-1.8,12.084-11.13,16.854-26.924,16.854-19.292,0-27.56-7-27.56-22.26,0-15.158,8.162-22.048,27.56-22.048,15.9,0,25.122,4.664,26.924,16.642h19.4c-1.908-21.412-16.748-32.648-46.322-32.648C-220.109-75.26-234.1-61.8-234.1-37.206ZM-65.455,0h21.094L-82.733-74.2h-25.758L-146.757,0h20.988l7.95-15.794H-73.4Zm-45.262-30,15.158-30.1L-80.507-30Zm64.13,4.452C-46.587-4.134-28.461,1.06,1.961,1.06c27.454,0,46.216-4.028,46.216-23.85C48.177-41.552,30.051-43.142.8-44.732-20.829-46-25.281-47.064-25.281-52.788c0-5.512,4.452-7.314,23.214-7.314,19.822,0,27.984,2.014,27.984,10.176H45C45-68.264,28.037-75.26.053-75.26c-27.772,0-44.414,5.194-44.414,21.518C-44.361-37.1-31.535-32.012.8-30.528c24.062,1.166,28.3,2.226,28.3,8.374,0,5.83-6.042,8.056-26.076,8.056-24.168,0-30.528-3.6-30.528-11.448Zm180.094-33.5V-74.2H55.067V0h78.44V-15.158H74.147V-30.21h59.36V-43.99H74.147V-59.042Zm5.83,33.5c0,21.412,18.126,26.606,48.548,26.606,27.454,0,46.216-4.028,46.216-23.85,0-18.762-18.126-20.352-47.382-21.942-21.624-1.272-26.076-2.332-26.076-8.056,0-5.512,4.452-7.314,23.214-7.314,19.822,0,27.984,2.014,27.984,10.176h19.08c0-18.338-16.96-25.334-44.944-25.334-27.772,0-44.414,5.194-44.414,21.518,0,16.642,12.826,21.73,45.156,23.214,24.062,1.166,28.3,2.226,28.3,8.374,0,5.83-6.042,8.056-26.076,8.056-24.168,0-30.528-3.6-30.528-11.448Z" transform="translate(-18438 -14992)" fill="none" stroke="#fff" stroke-width="1" opacity="0.2"/><path d="M-234.1-37.206c0,24.7,13.992,38.266,46.64,38.266,29.574,0,44.414-11.342,46.322-32.86h-19.4c-1.8,12.084-11.13,16.854-26.924,16.854-19.292,0-27.56-7-27.56-22.26,0-15.158,8.162-22.048,27.56-22.048,15.9,0,25.122,4.664,26.924,16.642h19.4c-1.908-21.412-16.748-32.648-46.322-32.648C-220.109-75.26-234.1-61.8-234.1-37.206ZM-65.455,0h21.094L-82.733-74.2h-25.758L-146.757,0h20.988l7.95-15.794H-73.4Zm-45.262-30,15.158-30.1L-80.507-30Zm64.13,4.452C-46.587-4.134-28.461,1.06,1.961,1.06c27.454,0,46.216-4.028,46.216-23.85C48.177-41.552,30.051-43.142.8-44.732-20.829-46-25.281-47.064-25.281-52.788c0-5.512,4.452-7.314,23.214-7.314,19.822,0,27.984,2.014,27.984,10.176H45C45-68.264,28.037-75.26.053-75.26c-27.772,0-44.414,5.194-44.414,21.518C-44.361-37.1-31.535-32.012.8-30.528c24.062,1.166,28.3,2.226,28.3,8.374,0,5.83-6.042,8.056-26.076,8.056-24.168,0-30.528-3.6-30.528-11.448Zm180.094-33.5V-74.2H55.067V0h78.44V-15.158H74.147V-30.21h59.36V-43.99H74.147V-59.042Zm5.83,33.5c0,21.412,18.126,26.606,48.548,26.606,27.454,0,46.216-4.028,46.216-23.85,0-18.762-18.126-20.352-47.382-21.942-21.624-1.272-26.076-2.332-26.076-8.056,0-5.512,4.452-7.314,23.214-7.314,19.822,0,27.984,2.014,27.984,10.176h19.08c0-18.338-16.96-25.334-44.944-25.334-27.772,0-44.414,5.194-44.414,21.518,0,16.642,12.826,21.73,45.156,23.214,24.062,1.166,28.3,2.226,28.3,8.374,0,5.83-6.042,8.056-26.076,8.056-24.168,0-30.528-3.6-30.528-11.448Z" transform="translate(-18966 -14992)" fill="none" stroke="#fff" stroke-width="1" opacity="0.2"/><path d="M-234.1-37.206c0,24.7,13.992,38.266,46.64,38.266,29.574,0,44.414-11.342,46.322-32.86h-19.4c-1.8,12.084-11.13,16.854-26.924,16.854-19.292,0-27.56-7-27.56-22.26,0-15.158,8.162-22.048,27.56-22.048,15.9,0,25.122,4.664,26.924,16.642h19.4c-1.908-21.412-16.748-32.648-46.322-32.648C-220.109-75.26-234.1-61.8-234.1-37.206ZM-65.455,0h21.094L-82.733-74.2h-25.758L-146.757,0h20.988l7.95-15.794H-73.4Zm-45.262-30,15.158-30.1L-80.507-30Zm64.13,4.452C-46.587-4.134-28.461,1.06,1.961,1.06c27.454,0,46.216-4.028,46.216-23.85C48.177-41.552,30.051-43.142.8-44.732-20.829-46-25.281-47.064-25.281-52.788c0-5.512,4.452-7.314,23.214-7.314,19.822,0,27.984,2.014,27.984,10.176H45C45-68.264,28.037-75.26.053-75.26c-27.772,0-44.414,5.194-44.414,21.518C-44.361-37.1-31.535-32.012.8-30.528c24.062,1.166,28.3,2.226,28.3,8.374,0,5.83-6.042,8.056-26.076,8.056-24.168,0-30.528-3.6-30.528-11.448Zm180.094-33.5V-74.2H55.067V0h78.44V-15.158H74.147V-30.21h59.36V-43.99H74.147V-59.042Zm5.83,33.5c0,21.412,18.126,26.606,48.548,26.606,27.454,0,46.216-4.028,46.216-23.85,0-18.762-18.126-20.352-47.382-21.942-21.624-1.272-26.076-2.332-26.076-8.056,0-5.512,4.452-7.314,23.214-7.314,19.822,0,27.984,2.014,27.984,10.176h19.08c0-18.338-16.96-25.334-44.944-25.334-27.772,0-44.414,5.194-44.414,21.518,0,16.642,12.826,21.73,45.156,23.214,24.062,1.166,28.3,2.226,28.3,8.374,0,5.83-6.042,8.056-26.076,8.056-24.168,0-30.528-3.6-30.528-11.448Z" transform="translate(-15270 -14992)" fill="none" stroke="#fff" stroke-width="1" opacity="0.2"/><path d="M-234.1-37.206c0,24.7,13.992,38.266,46.64,38.266,29.574,0,44.414-11.342,46.322-32.86h-19.4c-1.8,12.084-11.13,16.854-26.924,16.854-19.292,0-27.56-7-27.56-22.26,0-15.158,8.162-22.048,27.56-22.048,15.9,0,25.122,4.664,26.924,16.642h19.4c-1.908-21.412-16.748-32.648-46.322-32.648C-220.109-75.26-234.1-61.8-234.1-37.206ZM-65.455,0h21.094L-82.733-74.2h-25.758L-146.757,0h20.988l7.95-15.794H-73.4Zm-45.262-30,15.158-30.1L-80.507-30Zm64.13,4.452C-46.587-4.134-28.461,1.06,1.961,1.06c27.454,0,46.216-4.028,46.216-23.85C48.177-41.552,30.051-43.142.8-44.732-20.829-46-25.281-47.064-25.281-52.788c0-5.512,4.452-7.314,23.214-7.314,19.822,0,27.984,2.014,27.984,10.176H45C45-68.264,28.037-75.26.053-75.26c-27.772,0-44.414,5.194-44.414,21.518C-44.361-37.1-31.535-32.012.8-30.528c24.062,1.166,28.3,2.226,28.3,8.374,0,5.83-6.042,8.056-26.076,8.056-24.168,0-30.528-3.6-30.528-11.448Zm180.094-33.5V-74.2H55.067V0h78.44V-15.158H74.147V-30.21h59.36V-43.99H74.147V-59.042Zm5.83,33.5c0,21.412,18.126,26.606,48.548,26.606,27.454,0,46.216-4.028,46.216-23.85,0-18.762-18.126-20.352-47.382-21.942-21.624-1.272-26.076-2.332-26.076-8.056,0-5.512,4.452-7.314,23.214-7.314,19.822,0,27.984,2.014,27.984,10.176h19.08c0-18.338-16.96-25.334-44.944-25.334-27.772,0-44.414,5.194-44.414,21.518,0,16.642,12.826,21.73,45.156,23.214,24.062,1.166,28.3,2.226,28.3,8.374,0,5.83-6.042,8.056-26.076,8.056-24.168,0-30.528-3.6-30.528-11.448Z" transform="translate(-18966 -14720)" fill="none" stroke="#fff" stroke-width="1" opacity="0.2"/><path d="M-234.1-37.206c0,24.7,13.992,38.266,46.64,38.266,29.574,0,44.414-11.342,46.322-32.86h-19.4c-1.8,12.084-11.13,16.854-26.924,16.854-19.292,0-27.56-7-27.56-22.26,0-15.158,8.162-22.048,27.56-22.048,15.9,0,25.122,4.664,26.924,16.642h19.4c-1.908-21.412-16.748-32.648-46.322-32.648C-220.109-75.26-234.1-61.8-234.1-37.206ZM-65.455,0h21.094L-82.733-74.2h-25.758L-146.757,0h20.988l7.95-15.794H-73.4Zm-45.262-30,15.158-30.1L-80.507-30Zm64.13,4.452C-46.587-4.134-28.461,1.06,1.961,1.06c27.454,0,46.216-4.028,46.216-23.85C48.177-41.552,30.051-43.142.8-44.732-20.829-46-25.281-47.064-25.281-52.788c0-5.512,4.452-7.314,23.214-7.314,19.822,0,27.984,2.014,27.984,10.176H45C45-68.264,28.037-75.26.053-75.26c-27.772,0-44.414,5.194-44.414,21.518C-44.361-37.1-31.535-32.012.8-30.528c24.062,1.166,28.3,2.226,28.3,8.374,0,5.83-6.042,8.056-26.076,8.056-24.168,0-30.528-3.6-30.528-11.448Zm180.094-33.5V-74.2H55.067V0h78.44V-15.158H74.147V-30.21h59.36V-43.99H74.147V-59.042Zm5.83,33.5c0,21.412,18.126,26.606,48.548,26.606,27.454,0,46.216-4.028,46.216-23.85,0-18.762-18.126-20.352-47.382-21.942-21.624-1.272-26.076-2.332-26.076-8.056,0-5.512,4.452-7.314,23.214-7.314,19.822,0,27.984,2.014,27.984,10.176h19.08c0-18.338-16.96-25.334-44.944-25.334-27.772,0-44.414,5.194-44.414,21.518,0,16.642,12.826,21.73,45.156,23.214,24.062,1.166,28.3,2.226,28.3,8.374,0,5.83-6.042,8.056-26.076,8.056-24.168,0-30.528-3.6-30.528-11.448Z" transform="translate(-15270 -14720)" fill="none" stroke="#fff" stroke-width="1" opacity="0.2"/><path d="M-234.1-37.206c0,24.7,13.992,38.266,46.64,38.266,29.574,0,44.414-11.342,46.322-32.86h-19.4c-1.8,12.084-11.13,16.854-26.924,16.854-19.292,0-27.56-7-27.56-22.26,0-15.158,8.162-22.048,27.56-22.048,15.9,0,25.122,4.664,26.924,16.642h19.4c-1.908-21.412-16.748-32.648-46.322-32.648C-220.109-75.26-234.1-61.8-234.1-37.206ZM-65.455,0h21.094L-82.733-74.2h-25.758L-146.757,0h20.988l7.95-15.794H-73.4Zm-45.262-30,15.158-30.1L-80.507-30Zm64.13,4.452C-46.587-4.134-28.461,1.06,1.961,1.06c27.454,0,46.216-4.028,46.216-23.85C48.177-41.552,30.051-43.142.8-44.732-20.829-46-25.281-47.064-25.281-52.788c0-5.512,4.452-7.314,23.214-7.314,19.822,0,27.984,2.014,27.984,10.176H45C45-68.264,28.037-75.26.053-75.26c-27.772,0-44.414,5.194-44.414,21.518C-44.361-37.1-31.535-32.012.8-30.528c24.062,1.166,28.3,2.226,28.3,8.374,0,5.83-6.042,8.056-26.076,8.056-24.168,0-30.528-3.6-30.528-11.448Zm180.094-33.5V-74.2H55.067V0h78.44V-15.158H74.147V-30.21h59.36V-43.99H74.147V-59.042Zm5.83,33.5c0,21.412,18.126,26.606,48.548,26.606,27.454,0,46.216-4.028,46.216-23.85,0-18.762-18.126-20.352-47.382-21.942-21.624-1.272-26.076-2.332-26.076-8.056,0-5.512,4.452-7.314,23.214-7.314,19.822,0,27.984,2.014,27.984,10.176h19.08c0-18.338-16.96-25.334-44.944-25.334-27.772,0-44.414,5.194-44.414,21.518,0,16.642,12.826,21.73,45.156,23.214,24.062,1.166,28.3,2.226,28.3,8.374,0,5.83-6.042,8.056-26.076,8.056-24.168,0-30.528-3.6-30.528-11.448Z" transform="translate(-17910 -14720)" fill="none" stroke="#fff" stroke-width="1" opacity="0.2"/><path d="M-234.1-37.206c0,24.7,13.992,38.266,46.64,38.266,29.574,0,44.414-11.342,46.322-32.86h-19.4c-1.8,12.084-11.13,16.854-26.924,16.854-19.292,0-27.56-7-27.56-22.26,0-15.158,8.162-22.048,27.56-22.048,15.9,0,25.122,4.664,26.924,16.642h19.4c-1.908-21.412-16.748-32.648-46.322-32.648C-220.109-75.26-234.1-61.8-234.1-37.206ZM-65.455,0h21.094L-82.733-74.2h-25.758L-146.757,0h20.988l7.95-15.794H-73.4Zm-45.262-30,15.158-30.1L-80.507-30Zm64.13,4.452C-46.587-4.134-28.461,1.06,1.961,1.06c27.454,0,46.216-4.028,46.216-23.85C48.177-41.552,30.051-43.142.8-44.732-20.829-46-25.281-47.064-25.281-52.788c0-5.512,4.452-7.314,23.214-7.314,19.822,0,27.984,2.014,27.984,10.176H45C45-68.264,28.037-75.26.053-75.26c-27.772,0-44.414,5.194-44.414,21.518C-44.361-37.1-31.535-32.012.8-30.528c24.062,1.166,28.3,2.226,28.3,8.374,0,5.83-6.042,8.056-26.076,8.056-24.168,0-30.528-3.6-30.528-11.448Zm180.094-33.5V-74.2H55.067V0h78.44V-15.158H74.147V-30.21h59.36V-43.99H74.147V-59.042Zm5.83,33.5c0,21.412,18.126,26.606,48.548,26.606,27.454,0,46.216-4.028,46.216-23.85,0-18.762-18.126-20.352-47.382-21.942-21.624-1.272-26.076-2.332-26.076-8.056,0-5.512,4.452-7.314,23.214-7.314,19.822,0,27.984,2.014,27.984,10.176h19.08c0-18.338-16.96-25.334-44.944-25.334-27.772,0-44.414,5.194-44.414,21.518,0,16.642,12.826,21.73,45.156,23.214,24.062,1.166,28.3,2.226,28.3,8.374,0,5.83-6.042,8.056-26.076,8.056-24.168,0-30.528-3.6-30.528-11.448Z" transform="translate(-18438 -14720)" fill="none" stroke="#fff" stroke-width="1" opacity="0.2"/><path d="M-234.1-37.206c0,24.7,13.992,38.266,46.64,38.266,29.574,0,44.414-11.342,46.322-32.86h-19.4c-1.8,12.084-11.13,16.854-26.924,16.854-19.292,0-27.56-7-27.56-22.26,0-15.158,8.162-22.048,27.56-22.048,15.9,0,25.122,4.664,26.924,16.642h19.4c-1.908-21.412-16.748-32.648-46.322-32.648C-220.109-75.26-234.1-61.8-234.1-37.206ZM-65.455,0h21.094L-82.733-74.2h-25.758L-146.757,0h20.988l7.95-15.794H-73.4Zm-45.262-30,15.158-30.1L-80.507-30Zm64.13,4.452C-46.587-4.134-28.461,1.06,1.961,1.06c27.454,0,46.216-4.028,46.216-23.85C48.177-41.552,30.051-43.142.8-44.732-20.829-46-25.281-47.064-25.281-52.788c0-5.512,4.452-7.314,23.214-7.314,19.822,0,27.984,2.014,27.984,10.176H45C45-68.264,28.037-75.26.053-75.26c-27.772,0-44.414,5.194-44.414,21.518C-44.361-37.1-31.535-32.012.8-30.528c24.062,1.166,28.3,2.226,28.3,8.374,0,5.83-6.042,8.056-26.076,8.056-24.168,0-30.528-3.6-30.528-11.448Zm180.094-33.5V-74.2H55.067V0h78.44V-15.158H74.147V-30.21h59.36V-43.99H74.147V-59.042Zm5.83,33.5c0,21.412,18.126,26.606,48.548,26.606,27.454,0,46.216-4.028,46.216-23.85,0-18.762-18.126-20.352-47.382-21.942-21.624-1.272-26.076-2.332-26.076-8.056,0-5.512,4.452-7.314,23.214-7.314,19.822,0,27.984,2.014,27.984,10.176h19.08c0-18.338-16.96-25.334-44.944-25.334-27.772,0-44.414,5.194-44.414,21.518,0,16.642,12.826,21.73,45.156,23.214,24.062,1.166,28.3,2.226,28.3,8.374,0,5.83-6.042,8.056-26.076,8.056-24.168,0-30.528-3.6-30.528-11.448Z" transform="translate(-16062 -14856)" fill="none" stroke="#fff" stroke-width="1" opacity="0.2"/><path d="M-234.1-37.206c0,24.7,13.992,38.266,46.64,38.266,29.574,0,44.414-11.342,46.322-32.86h-19.4c-1.8,12.084-11.13,16.854-26.924,16.854-19.292,0-27.56-7-27.56-22.26,0-15.158,8.162-22.048,27.56-22.048,15.9,0,25.122,4.664,26.924,16.642h19.4c-1.908-21.412-16.748-32.648-46.322-32.648C-220.109-75.26-234.1-61.8-234.1-37.206ZM-65.455,0h21.094L-82.733-74.2h-25.758L-146.757,0h20.988l7.95-15.794H-73.4Zm-45.262-30,15.158-30.1L-80.507-30Zm64.13,4.452C-46.587-4.134-28.461,1.06,1.961,1.06c27.454,0,46.216-4.028,46.216-23.85C48.177-41.552,30.051-43.142.8-44.732-20.829-46-25.281-47.064-25.281-52.788c0-5.512,4.452-7.314,23.214-7.314,19.822,0,27.984,2.014,27.984,10.176H45C45-68.264,28.037-75.26.053-75.26c-27.772,0-44.414,5.194-44.414,21.518C-44.361-37.1-31.535-32.012.8-30.528c24.062,1.166,28.3,2.226,28.3,8.374,0,5.83-6.042,8.056-26.076,8.056-24.168,0-30.528-3.6-30.528-11.448Zm180.094-33.5V-74.2H55.067V0h78.44V-15.158H74.147V-30.21h59.36V-43.99H74.147V-59.042Zm5.83,33.5c0,21.412,18.126,26.606,48.548,26.606,27.454,0,46.216-4.028,46.216-23.85,0-18.762-18.126-20.352-47.382-21.942-21.624-1.272-26.076-2.332-26.076-8.056,0-5.512,4.452-7.314,23.214-7.314,19.822,0,27.984,2.014,27.984,10.176h19.08c0-18.338-16.96-25.334-44.944-25.334-27.772,0-44.414,5.194-44.414,21.518,0,16.642,12.826,21.73,45.156,23.214,24.062,1.166,28.3,2.226,28.3,8.374,0,5.83-6.042,8.056-26.076,8.056-24.168,0-30.528-3.6-30.528-11.448Z" transform="translate(-15534 -14856)" fill="none" stroke="#fff" stroke-width="1" opacity="0.2"/><path d="M-234.1-37.206c0,24.7,13.992,38.266,46.64,38.266,29.574,0,44.414-11.342,46.322-32.86h-19.4c-1.8,12.084-11.13,16.854-26.924,16.854-19.292,0-27.56-7-27.56-22.26,0-15.158,8.162-22.048,27.56-22.048,15.9,0,25.122,4.664,26.924,16.642h19.4c-1.908-21.412-16.748-32.648-46.322-32.648C-220.109-75.26-234.1-61.8-234.1-37.206ZM-65.455,0h21.094L-82.733-74.2h-25.758L-146.757,0h20.988l7.95-15.794H-73.4Zm-45.262-30,15.158-30.1L-80.507-30Zm64.13,4.452C-46.587-4.134-28.461,1.06,1.961,1.06c27.454,0,46.216-4.028,46.216-23.85C48.177-41.552,30.051-43.142.8-44.732-20.829-46-25.281-47.064-25.281-52.788c0-5.512,4.452-7.314,23.214-7.314,19.822,0,27.984,2.014,27.984,10.176H45C45-68.264,28.037-75.26.053-75.26c-27.772,0-44.414,5.194-44.414,21.518C-44.361-37.1-31.535-32.012.8-30.528c24.062,1.166,28.3,2.226,28.3,8.374,0,5.83-6.042,8.056-26.076,8.056-24.168,0-30.528-3.6-30.528-11.448Zm180.094-33.5V-74.2H55.067V0h78.44V-15.158H74.147V-30.21h59.36V-43.99H74.147V-59.042Zm5.83,33.5c0,21.412,18.126,26.606,48.548,26.606,27.454,0,46.216-4.028,46.216-23.85,0-18.762-18.126-20.352-47.382-21.942-21.624-1.272-26.076-2.332-26.076-8.056,0-5.512,4.452-7.314,23.214-7.314,19.822,0,27.984,2.014,27.984,10.176h19.08c0-18.338-16.96-25.334-44.944-25.334-27.772,0-44.414,5.194-44.414,21.518,0,16.642,12.826,21.73,45.156,23.214,24.062,1.166,28.3,2.226,28.3,8.374,0,5.83-6.042,8.056-26.076,8.056-24.168,0-30.528-3.6-30.528-11.448Z" transform="translate(-17646 -14856)" fill="none" stroke="#fff" stroke-width="1" opacity="0.2"/><path d="M-234.1-37.206c0,24.7,13.992,38.266,46.64,38.266,29.574,0,44.414-11.342,46.322-32.86h-19.4c-1.8,12.084-11.13,16.854-26.924,16.854-19.292,0-27.56-7-27.56-22.26,0-15.158,8.162-22.048,27.56-22.048,15.9,0,25.122,4.664,26.924,16.642h19.4c-1.908-21.412-16.748-32.648-46.322-32.648C-220.109-75.26-234.1-61.8-234.1-37.206ZM-65.455,0h21.094L-82.733-74.2h-25.758L-146.757,0h20.988l7.95-15.794H-73.4Zm-45.262-30,15.158-30.1L-80.507-30Zm64.13,4.452C-46.587-4.134-28.461,1.06,1.961,1.06c27.454,0,46.216-4.028,46.216-23.85C48.177-41.552,30.051-43.142.8-44.732-20.829-46-25.281-47.064-25.281-52.788c0-5.512,4.452-7.314,23.214-7.314,19.822,0,27.984,2.014,27.984,10.176H45C45-68.264,28.037-75.26.053-75.26c-27.772,0-44.414,5.194-44.414,21.518C-44.361-37.1-31.535-32.012.8-30.528c24.062,1.166,28.3,2.226,28.3,8.374,0,5.83-6.042,8.056-26.076,8.056-24.168,0-30.528-3.6-30.528-11.448Zm180.094-33.5V-74.2H55.067V0h78.44V-15.158H74.147V-30.21h59.36V-43.99H74.147V-59.042Zm5.83,33.5c0,21.412,18.126,26.606,48.548,26.606,27.454,0,46.216-4.028,46.216-23.85,0-18.762-18.126-20.352-47.382-21.942-21.624-1.272-26.076-2.332-26.076-8.056,0-5.512,4.452-7.314,23.214-7.314,19.822,0,27.984,2.014,27.984,10.176h19.08c0-18.338-16.96-25.334-44.944-25.334-27.772,0-44.414,5.194-44.414,21.518,0,16.642,12.826,21.73,45.156,23.214,24.062,1.166,28.3,2.226,28.3,8.374,0,5.83-6.042,8.056-26.076,8.056-24.168,0-30.528-3.6-30.528-11.448Z" transform="translate(-17382 -14992)" fill="none" stroke="#fff" stroke-width="1" opacity="0.2"/><path d="M-234.1-37.206c0,24.7,13.992,38.266,46.64,38.266,29.574,0,44.414-11.342,46.322-32.86h-19.4c-1.8,12.084-11.13,16.854-26.924,16.854-19.292,0-27.56-7-27.56-22.26,0-15.158,8.162-22.048,27.56-22.048,15.9,0,25.122,4.664,26.924,16.642h19.4c-1.908-21.412-16.748-32.648-46.322-32.648C-220.109-75.26-234.1-61.8-234.1-37.206ZM-65.455,0h21.094L-82.733-74.2h-25.758L-146.757,0h20.988l7.95-15.794H-73.4Zm-45.262-30,15.158-30.1L-80.507-30Zm64.13,4.452C-46.587-4.134-28.461,1.06,1.961,1.06c27.454,0,46.216-4.028,46.216-23.85C48.177-41.552,30.051-43.142.8-44.732-20.829-46-25.281-47.064-25.281-52.788c0-5.512,4.452-7.314,23.214-7.314,19.822,0,27.984,2.014,27.984,10.176H45C45-68.264,28.037-75.26.053-75.26c-27.772,0-44.414,5.194-44.414,21.518C-44.361-37.1-31.535-32.012.8-30.528c24.062,1.166,28.3,2.226,28.3,8.374,0,5.83-6.042,8.056-26.076,8.056-24.168,0-30.528-3.6-30.528-11.448Zm180.094-33.5V-74.2H55.067V0h78.44V-15.158H74.147V-30.21h59.36V-43.99H74.147V-59.042Zm5.83,33.5c0,21.412,18.126,26.606,48.548,26.606,27.454,0,46.216-4.028,46.216-23.85,0-18.762-18.126-20.352-47.382-21.942-21.624-1.272-26.076-2.332-26.076-8.056,0-5.512,4.452-7.314,23.214-7.314,19.822,0,27.984,2.014,27.984,10.176h19.08c0-18.338-16.96-25.334-44.944-25.334-27.772,0-44.414,5.194-44.414,21.518,0,16.642,12.826,21.73,45.156,23.214,24.062,1.166,28.3,2.226,28.3,8.374,0,5.83-6.042,8.056-26.076,8.056-24.168,0-30.528-3.6-30.528-11.448Z" transform="translate(-17382 -14720)" fill="none" stroke="#fff" stroke-width="1" opacity="0.2"/></g></svg>